<mxfile host="app.diagrams.net" modified="2024-03-15T11:09:30.660Z" agent="Mozilla/5.0 (Windows NT 10.0; Win64; x64) AppleWebKit/537.36 (KHTML, like Gecko) Chrome/122.0.0.0 Safari/537.36" version="23.1.7" etag="ihTIu3L7Whr0b99G8HAP" type="github">
  <diagram name="Сторінка-1" id="wndHHUxONTHjifHZyyzE">
    <mxGraphModel>
      <root>
        <mxCell id="0" />
        <mxCell id="1" parent="0" />
      </root>
    </mxGraphModel>
  </diagram>
</mxfile>
